<svg width="31" height="20" viewBox="0 0 31 20" fill="none" xmlns="http://www.w3.org/2000/svg">
<path fill-rule="evenodd" clip-rule="evenodd" d="M15.9501 6.5208L23.9547 1.32958C24.6475 0.880456 25.7708 0.880456 26.4637 1.32958C27.1565 1.77893 27.1565 2.50733 26.4637 2.95668L17.6824 8.65153C17.2004 8.96432 16.51 9.05948 15.9011 8.93702C15.3208 9.03068 14.6814 8.93044 14.2278 8.63628L5.5053 2.97946C4.81704 2.53277 4.81704 1.80944 5.5053 1.36319C6.19344 0.916727 7.30923 0.916727 7.99737 1.36319L15.9501 6.5208ZM15.9322 16.5912L26.8474 9.45335C27.7921 8.83551 29.3239 8.83551 30.2686 9.45335C31.2134 10.071 31.2134 11.0727 30.2686 11.6906L18.2942 19.5211C17.637 19.9509 16.6956 20.0817 15.8654 19.9135C15.074 20.0423 14.202 19.9045 13.5833 19.5001L1.68903 11.7215C0.750629 11.1081 0.750629 10.1132 1.68903 9.49935C2.62746 8.88571 4.14894 8.88571 5.08737 9.49935L15.9322 16.5912Z" fill="white"/>
</svg>
